<svg width="170" height="170" viewBox="0 0 170 170" fill="none" xmlns="http://www.w3.org/2000/svg">
<path fill-rule="evenodd" clip-rule="evenodd" d="M90.5386 6.91055C90.5386 10.7271 87.4394 13.8211 83.6163 13.8211C79.7937 13.8211 76.6945 10.7271 76.6945 6.91055C76.6945 3.09394 79.7937 0 83.6163 0C87.4394 0 90.5386 3.09394 90.5386 6.91055ZM109.918 33.1702C109.918 37.7502 106.199 41.4628 101.612 41.4628C97.0246 41.4628 93.3054 37.7502 93.3054 33.1702C93.3054 28.5902 97.0246 24.8776 101.612 24.8776C106.199 24.8776 109.918 28.5902 109.918 33.1702ZM68.3862 38.6987C71.4448 38.6987 73.924 36.2237 73.924 33.1702C73.924 30.1172 71.4448 27.6417 68.3862 27.6417C65.3281 27.6417 62.8489 30.1172 62.8489 33.1702C62.8489 36.2237 65.3281 38.6987 68.3862 38.6987ZM120.066 56.2399C125.632 63.5896 128.933 72.7435 128.933 82.6673C128.933 106.892 109.263 126.529 84.998 126.529C60.7329 126.529 41.0625 106.892 41.0625 82.6673C41.0625 72.7431 44.3643 63.5882 49.9308 56.2385L0.551689 16.5864C-1.29418 22.115 1.38223 39.2531 10.2424 46.9927C14.3751 50.603 18.1665 53.8521 21.504 56.7123C25.3215 59.9841 28.5463 62.7477 31.0084 64.9601V74.6349L3.86456 53.903C4.78742 60.8138 8.56695 76.3472 16.8734 83.2575C22.0527 87.5669 26.6243 90.8354 29.2626 92.7226C30.0092 93.2562 30.6014 93.6796 31.0084 93.9841V105.041L13.011 89.8378C12.0881 99.0521 19.3819 117.355 29.0723 124.39C35.2093 128.846 45.6076 137.58 56.3044 146.565C66.843 155.418 77.6715 164.513 85.0004 170C92.3288 164.513 103.156 155.417 113.695 146.565C124.392 137.581 134.79 128.845 140.927 124.39C150.618 117.354 157.912 99.0516 156.989 89.8374L138.991 105.041V93.9836C140.837 92.6014 146.19 88.4551 152.836 82.927C160.949 76.1765 162.899 61.5139 163.845 54.3966L163.911 53.9026L138.991 74.634V64.9596C141.454 62.7472 144.677 59.9841 148.495 56.7123L148.501 56.7071C151.837 53.8479 155.627 50.6002 159.757 46.9922C168.618 39.2522 171.294 22.1141 169.448 16.5858L120.066 56.2399ZM84.999 116.097C103.349 116.097 118.224 101.246 118.224 82.9266C118.224 64.607 103.349 49.7563 84.999 49.7563C66.6489 49.7563 51.773 64.607 51.773 82.9266C51.773 101.246 66.6489 116.097 84.999 116.097Z" fill="#1F2326"/>
</svg>
