<svg width="37" height="37" viewBox="0 0 37 37" fill="none" xmlns="http://www.w3.org/2000/svg">
<circle cx="18.5" cy="18.5" r="18.5" fill="#141414"/>
<g clip-path="url(#clip0_1101_1606)">
<path d="M24.2378 13.1576C23.0905 12.6668 21.8602 12.3053 20.5739 12.0982C20.5505 12.0942 20.5271 12.1042 20.515 12.1241C20.3568 12.3865 20.1815 12.7288 20.0588 12.9978C18.6753 12.8047 17.2989 12.8047 15.9437 12.9978C15.821 12.7228 15.6394 12.3865 15.4804 12.1241C15.4684 12.1048 15.445 12.0948 15.4215 12.0982C14.1359 12.3046 12.9057 12.6662 11.7577 13.1576C11.7478 13.1616 11.7392 13.1683 11.7336 13.1769C9.40004 16.4273 8.76079 19.5977 9.07439 22.7288C9.0758 22.7442 9.08503 22.7588 9.0978 22.7681C10.6374 23.8223 12.1288 24.4622 13.5925 24.8864C13.6159 24.8931 13.6407 24.8851 13.6556 24.8671C14.0018 24.4263 14.3105 23.9615 14.5751 23.4727C14.5907 23.444 14.5758 23.4101 14.5439 23.3987C14.0543 23.2256 13.5882 23.0145 13.1398 22.7748C13.1043 22.7555 13.1015 22.7082 13.1341 22.6855C13.2285 22.6196 13.3229 22.551 13.413 22.4818C13.4293 22.4691 13.452 22.4665 13.4711 22.4744C16.417 23.7284 19.6062 23.7284 22.5172 22.4744C22.5364 22.4658 22.5591 22.4685 22.5761 22.4811C22.6662 22.5504 22.7606 22.6196 22.8557 22.6855C22.8883 22.7082 22.8862 22.7555 22.8507 22.7748C22.4023 23.0192 21.9361 23.2256 21.4459 23.3981C21.414 23.4094 21.3998 23.444 21.4154 23.4727C21.6857 23.9608 21.9943 24.4256 22.3342 24.8664C22.3484 24.8851 22.3739 24.8931 22.3973 24.8864C23.8681 24.4622 25.3595 23.8223 26.8991 22.7681C26.9126 22.7588 26.9211 22.7448 26.9225 22.7295C27.2978 19.1096 26.2939 15.9651 24.2612 13.1776C24.2562 13.1683 24.2477 13.1616 24.2378 13.1576ZM15.015 20.8223C14.1281 20.8223 13.3973 20.0632 13.3973 19.1309C13.3973 18.1986 14.114 17.4395 15.015 17.4395C15.9232 17.4395 16.6469 18.2053 16.6327 19.1309C16.6327 20.0632 15.9161 20.8223 15.015 20.8223ZM20.9961 20.8223C20.1092 20.8223 19.3784 20.0632 19.3784 19.1309C19.3784 18.1986 20.095 17.4395 20.9961 17.4395C21.9042 17.4395 22.6279 18.2053 22.6137 19.1309C22.6137 20.0632 21.9042 20.8223 20.9961 20.8223Z" fill="white"/>
</g>
<defs>
<clipPath id="clip0_1101_1606">
<rect width="18" height="13" fill="white" transform="translate(9 12)"/>
</clipPath>
</defs>
</svg>
