<svg width="179" height="156" viewBox="0 0 179 156" fill="none" xmlns="http://www.w3.org/2000/svg">
<path fill-rule="evenodd" clip-rule="evenodd" d="M12.9975 77.6406L89.5 156L166.003 77.6406C183.478 59.7402 183.311 31.4314 165.623 13.7326C147.325 -4.57752 117.301 -4.57752 99.0024 13.7326L89.5 23.2411L79.9975 13.7326C61.699 -4.57752 31.675 -4.57752 13.3768 13.7326C-4.31067 31.4314 -4.47864 59.7402 12.9975 77.6406ZM127.373 69.3092C116.825 68.7962 107.882 64.781 100.545 57.2629C93.2086 49.7454 89.5401 40.7778 89.5401 30.3608C89.5401 40.7778 85.8585 49.7454 78.4954 57.2629C71.1322 64.781 62.1765 68.7962 51.6281 69.3092C58.5733 69.6172 64.9442 71.5545 70.7408 75.121C76.537 78.6875 81.1194 83.4082 84.4875 89.2842C87.8561 95.1597 89.5401 101.536 89.5401 108.412C89.5401 97.9437 93.2086 88.9377 100.545 81.3944C107.882 73.8507 116.825 69.8226 127.373 69.3092Z" fill="#1F2326"/>
</svg>
