<svg width="37" height="37" viewBox="0 0 37 37" fill="none" xmlns="http://www.w3.org/2000/svg">
<circle cx="18.5" cy="18.5" r="18.5" fill="#141414"/>
<path d="M26.762 13.2913C26.2054 13.538 25.6074 13.7047 24.9787 13.78C25.6274 13.3919 26.1127 12.781 26.344 12.0613C25.7346 12.4233 25.0676 12.6781 24.372 12.8147C23.9043 12.3153 23.2847 11.9842 22.6096 11.873C21.9344 11.7618 21.2414 11.8765 20.6382 12.1995C20.0349 12.5225 19.5552 13.0356 19.2735 13.6591C18.9917 14.2827 18.9237 14.9818 19.08 15.648C17.8452 15.586 16.6371 15.265 15.5343 14.7059C14.4315 14.1469 13.4586 13.3621 12.6787 12.4027C12.412 12.8627 12.2587 13.396 12.2587 13.964C12.2584 14.4753 12.3843 14.9788 12.6253 15.4298C12.8662 15.8808 13.2148 16.2654 13.64 16.5493C13.1469 16.5337 12.6646 16.4004 12.2334 16.1607V16.2007C12.2333 16.9178 12.4814 17.6129 12.9355 18.168C13.3896 18.7231 14.0217 19.104 14.7247 19.246C14.2672 19.3698 13.7876 19.3881 13.322 19.2993C13.5204 19.9164 13.9067 20.456 14.4269 20.8426C14.9472 21.2292 15.5753 21.4435 16.2234 21.4553C15.1233 22.319 13.7646 22.7874 12.366 22.7853C12.1183 22.7854 11.8707 22.7709 11.6247 22.742C13.0443 23.6548 14.6969 24.1392 16.3847 24.1373C22.098 24.1373 25.2214 19.4053 25.2214 15.3013C25.2214 15.168 25.218 15.0333 25.212 14.9C25.8196 14.4607 26.344 13.9166 26.7607 13.2933L26.762 13.2913Z" fill="white"/>
</svg>
